<?xml version="1.0"?><svg version="1.2" baseProfile="tiny-ps" viewBox="0 0 100 100" xmlns="http://www.w3.org/2000/svg" xmlns:xlink="http://www.w3.org/1999/xlink"><title>PhilVoyage Bimi</title><g><g fill="#e9e9ee" transform="matrix(.1 0 0 -.1 0 100)"><path d="M0 500V0h1000v1000H0V500z"/></g><g fill="#c1b9ca" transform="matrix(.1 0 0 -.1 0 100)"><path d="M0 500V0h1000v1000H0V500zm423 260c9-11 17-24 17-28-1-4-10 4-20 17l-20 23v-44l-19 5-20 5-5-14-5-14 25 6 26 7-7-23-7-23 23 17c13 9 28 16 34 16 5-1-2-8-17-16-16-8-28-19-28-24 0-6-4-10-10-10s-9 3-9 8c1 4 1 14 0 22l-1 16-22 2c-47 3-114 1-131-4l-19-6 29-31 28-32-25 21c-14 12-34 26-44 31l-19 10 34 11c19 6 52 14 74 18l40 8-65 7-65 6 77-1 78-1 5 10 5 10 6-12c3-7 10-13 16-13h10l-5 20-5 20h12c6 0 19-9 29-20zm-305-50c-20-11-47-34-61-51l-25-32 6-15 5-15-11 7c-7 4-12 14-12 21 0 24 97 104 125 104 6 0-6-9-27-19zm352 10c0-5-2-10-4-10-3 0-8 5-11 10l-6 10h10c6 0 11-4 11-10zm-340-33c0-2-10-12-22-23l-23-19 19 23c18 21 26 27 26 19zm183-54-23-4V500h20v35l20 13 20 12v-30l-12 2-13 3-3-24-4-23-29 6-29 6v-8c0-5-7-17-15-28l-16-19 21 44 22 44-4 48-3 49 10 4c6 3 21 4 35 4l25-1-22-4zm268-4 5-9 31 11 32 10 22-12 23-12 4 12 4 11h123l14-9 13-9-11-18-10-19-1 23v22h-39l-6-37c-4-21-9-50-11-65l-6-28h32v25l8-11 7-11 72-2 71-2 5 18 5 18 1-22 1-23H720v33l-24-22-25-23-13 5-13 5 19 1 19 1-6 7-7 6 10 12 10 12-25 13c-29 15-29 18-10 44l14 18 9-6c5-3 13-20 17-38l8-33 5 30 4 30-28 23-27 23-26-6c-14-3-33-13-41-22l-15-16 13 7 12 7v-40l18-13 17-13 3-25c2-14 9-31 14-37l10-13h-30l-6-16c-3-9-3-21 0-27l7-12-12 11-13 12 12 22 12 23-12 7c-6 4-11 11-10 16s-4 10-11 13l-12 4 9-14 8-14-16 13-16 13-7-11-6-10-107 1c-59 1-99 3-89 6l17 4 1 27 2 27 4-27 4-28h59v127l-30 1-30 1-1-27-2-27-4 28-5 29-19-5-19-5 6 9 5 9 112-1h112l6-10zm387-35c-1-25-4-47-8-49l-6-4 2 46 3 45-27-4c-15-3-38-2-52 2l-25 7 57 1 56 1v-45zm-852 20c-21-20-20-30 5-55l20-20 22 3 21 3 13 25 13 25v-14c0-19-30-51-48-51-24 0-70 32-81 57-14 30-14 43-1 23l10-15 11 18c5 9 15 17 20 17h10l-15-16zm75-1 14-18-17 14c-10 7-18 15-18 17 0 8 8 3 21-13zm126-35-5-13-1 19c-1 11 2 17 5 13 3-3 4-12 1-19zM27 528l-5-13-1 19c-1 11 2 17 5 13 3-3 4-12 1-19zm37-72c16-27 23-46 17-42-11 7-51 79-51 92 0 10 2 7 34-50zm311 4 7-11 11 9 12 8h79l79-1 8-22 8-23h-19v45l-9-14c-5-8-7-20-4-28 6-14 2-16-21-7l-16 6 11 19 10 19h-31v-47h-30l6 21 6 21-7-7-8-8-14 11c-15 13-17 5-4-20l10-18h-29l-6 24c-8 30-22 29-30-2l-6-25h-58v19l24-5 24-4-2 17-3 18h-38l-10-22-10-23h-12c-7 0-13 3-13 8 0 4-3 17-6 30l-6 22h91l6-10zm594-24-2-31-4 28-4 27h-15c-17 0-18-12-1-29l12-14-12 7-13 7v-21h-77l3 28 3 27-5-17c-3-10-9-18-14-18s-11 8-14 18l-5 17 3-26 3-25-16 1c-9 0-22 4-29 9l-12 7 7 12 6 11 7-19 7-19 6 10 6 10-9 13-8 14-17-7-17-6 5-21 5-20-14 12-14 11v-22h-15c-8 0-15 3-15 8 0 4-3 17-6 29l-6 21h272l-1-32zm-300-8-1-23-5 15c-3 8-11 18-17 22l-11 8h35l-1-22zm-449-7c-5-11-15-23-21-27l-11-6 17 26c20 30 30 35 15 7zm-82-71c0-22 5-21 27 5l25 30-2-30-3-30-28-3-28-3-15 12-15 12 6 15 5 15-12 16c-6 9 0 5 14-9s26-27 26-30zm322 215v-65h50v9c0 6-4 13-10 16l-10 6v99h-30v-65zm48 23-3-43 9-22 9-23h37l1 33v32l9-22c15-38 18-26 7 30-12 61-15 66-28 47l-11-15-5 13c-2 6-9 12-13 12h-9l-3-42zm206 19c3-12 8-41 12-64l7-43h27v28c0 15 3 43 6 63l6 36-32 1-32 1 6-22zM290 453c0-5 4-14 9-21l8-14 6 21 5 21h-14c-8 0-14-3-14-7zm427-14 6-21 8 14c13 19 11 28-5 28h-14l5-21zm160 14c-4-3-7-12-7-19v-13l20 2 20 1v36h-13c-8 0-17-3-20-7z"/></g><g fill="#7395bd" transform="matrix(.1 0 0 -.1 0 100)"><path d="M0 500V0h1000v1000H0V500zm438 249c19-17 32-32 30-34-13-14-81-55-89-55h-10l6 19 6 18-32 7c-39 8-87 8-116 0l-23-6 32-30 32-30h696l-1-74-1-74H720v19l-29-16-29-17 6-38 5-38h-16c-8 0-22 3-31 6l-16 6v18c0 11 5 22 10 25 18 11 11 23-17 30-16 4-79 6-141 5l-114-1-5 20c-7 27-23 27-23 0v-21l-25 4-25 5-38-61c-20-33-39-72-42-86l-5-25h-80l-3 30c-2 17-9 37-16 45s-25 37-41 65l-29 50v62l-1 63 43 39 43 40 52 18 52 17h183l-5 13-5 13h13c8 0 29-14 47-31zm-58-290v-11l13 9 12 10 80 2 80 2 12-27c16-36 10-43-37-42h-40l-6 9-5 9-11-7c-7-3-40-7-75-8l-63-2-9 14-8 15-6-16c-10-25-24-19-36 15-6 18-11 34-11 35 0 2 25 4 55 4h55v-11zm594-12 5-21-10-12-10-12-99 3c-55 1-103 5-107 8l-6 7-13-11-14-11-10 27c-5 14-10 30-10 35v9h134l134-1 6-21zM400 744v-16l-20 5-20 5v-18h42l-5-22-6-23 19 23 19 24 13-8c7-4 2 5-11 19-29 32-31 32-31 11zm-237-18c-22-8-55-23-71-34l-29-21-12-29-12-28 10-27 11-27 32-20 33-20h-14c-7 0-28 15-47 34l-34 34v-59l26-52c15-28 41-71 59-94l33-43 25 34c14 18 40 56 56 85l31 52 6 37 6 38-15 36-15 37-40 20-39 20-24-16c-30-20-49-43-49-60v-13l25 16 25 16 25-6 26-7 11-24 11-25-11-25-12-25h-62l-29 29-29 29v40l26 32c15 17 40 38 56 46l29 15 22-6 22-6-15 11-15 12 22-5c12-3 37-1 55 3l33 8h-50l-50 1-42-13zm-40-111-21-15 5-21 6-21 24-9c31-11 29-12 47 7 21 20 20 30-4 54s-29 24-57 5zm167-50v-65h20v39l20 11 20 11v22c0 28-17 47-42 47h-18v-65zm27 13-5-13-1 19c-1 11 2 17 5 13 3-3 4-12 1-19zm43-13v-65h19l4 28 4 27 2-28 1-29 13 5 12 4v116l-12 4-12 4-4-28-4-28-2 28-1 27h-20v-65zm70 0v-65h20v130h-20v-65zm30 0v-65h40v9c0 6-4 13-10 16l-10 6v99h-20v-65zm50 46c0-10 3-39 6-65l7-46h37v28c0 15 3 44 6 65l7 37h-23v-19c0-11-4-23-10-26l-10-6v51h-20v-19zm204-3c3-13 9-42 12-65 4-24 10-43 13-43 10 0 34 121 26 128-3 4-10 0-14-7l-8-13-7 11c-4 6-12 11-18 11h-10l6-22zm72-15c-3-21-6-50-6-65v-28h20v34l15-20 15-19 9 14 9 13 6-11 7-11h50l-3 38-3 37-17-1-18-2 1 22 1 21 5-12c5-14 33-18 33-5 0 4-4 13-9 20l-8 14-19-4-19-3-5-50-5-50-7 25c-4 14-8 37-8 53v27h-37l-7-37zm91-65-5-13v50l5-12c2-7 2-19 0-25zm44 37v-65h19c22 0 27 16 8 23l-13 4 13 23 14 23-13 8-14 8 13 13c17 17 15 28-7 28h-19l-1-65zm-312 50c-4-2-7-43-4-53l5-13 21 11 21 12-5 19-5 19 9-6 9-5v21l-25-2c-14-1-25-3-26-3zm79-20c6-11 11-24 12-30 3-17 10-19 10-4 0 9-7 24-16 35l-15 19 9-20zm-46-78 2-25 19 9 18 10-4 12c-2 7-11 13-20 15l-17 3 2-24zm-12-71c0-2 8-10 18-17l17-14-14 18c-13 16-21 21-21 13zm-130-6c0-11 2-20 4-20s6 9 9 20l5 20h-9c-5 0-9-9-9-20zm-104-5-5-15h14c16 0 20 16 6 24l-9 6-6-15zm-48-2c7-3 16-2 19 1 4 3-2 6-13 5l-19-1 13-5zm367 17 6-10 10 5c14 9 11 15-7 15h-15l6-10zm106-16 1-19 5 13c3 7 2 16-1 19-3 4-6-2-5-13zm67-1c7-3 16-2 19 1 4 3-2 6-13 5l-19-1 13-5z"/></g><g fill="#d7474c" transform="matrix(.1 0 0 -.1 0 100)"><path d="M0 500V0h1000v1000H0V500zm439 251c17-16 31-34 31-40v-11h-15c-8 0-24-9-35-20s-27-20-36-20h-16l5 19 5 20-13-5-13-5-7 10-6 11-37-1c-20-1-47-4-60-8l-23-6 29-28 29-28 349-2 349-2 1-70 2-70-11-7-11-6 13-16 13-15-4-23-3-23-105-1-105-1-12 10-13 9v-11c0-6-6-11-14-11h-14l-5 18c-2 9-8 24-12 34l-6 16 21 7 22 7-10 10-10 10-21-14-22-13 3-35 3-35h-60v65l-20 13-20 14-25-14-25-13h40l13-27c6-15 12-30 12-34v-8l-151 1H289l-10 27-11 26 11 18 11 17h-12l-13-1-35-61c-19-33-34-67-32-74l3-13-26-17-26-17-24 11-25 12v21c0 11-9 34-20 49-11 16-31 52-45 82l-25 53v99l48 46 48 46 61 17 60 17 74-2 73-2 4 12c6 20 28 14 61-17zm-274-25c-56-17-93-44-111-77l-14-29 6-24c8-32 34-55 81-72l38-13-23-1c-12 0-41 9-62 20l-40 20v-15c0-22 44-106 74-143 15-16 26-35 26-42v-13l34 44c19 24 49 70 65 102l31 60v24c0 13-6 39-14 58l-14 34-40 20-39 20-24-16c-30-20-49-43-49-60v-13l25 16 25 16 25-6 26-7 11-24 11-25-11-25-12-25h-62l-29 29-29 29v40l26 32c15 17 40 38 56 46l29 15 22-6 22-6-15 11-15 12 22-5c12-3 37-1 55 3l33 8h-50l-50 1-40-13zm240 5-5-10 10-6 10-6v15c0 18-6 21-15 7zm456-110-12-8 3-54 3-54 23-1 22-1v67h-21l6-19 6-19-11-7-10-6v93l15-12 15-12v15c0 18-22 28-39 18zm-744-8c-4-3-7-17-7-29v-24l25-6c14-3 32-4 40 0l15 5v19c0 10-5 23-12 30-13 13-50 16-61 5zm173-53v-61l10 6c6 3 10 15 10 26v19h31l-3 33-3 32-22 3-23 3v-61zm40 31c0-11-4-22-9-25l-9-6-5 12c-5 17 3 38 14 38 5 0 9-9 9-19zm30-33v-62l9 10c5 5 11 20 14 34l4 25 2-27c0-15 6-30 11-33l10-6v121h-20l-1-27v-28l-8 20c-5 11-7 23-4 28 2 4-1 7-6 7h-11v-62zm70 1v-60l9 6 9 5-1 55-1 55h-16v-61zm30 1v-60h40v22l-14-5-14-6 5 55 6 54h-23v-60zm50 51c0-6 5-13 10-16l10-6v15c0 9-4 16-10 16-5 0-10-4-10-9zm40-28-1-38-15 20-15 20 3-39 3-39 12-4 12-4 5 23c3 13 7 40 10 61l5 37h-19v-37zm170 11c6-14 10-38 10-54v-29l10-6 10-6 1 33c1 18 1 37 0 41s3 17 9 27l11 20h-11c-5 0-10-7-10-15s-4-15-10-15c-5 0-10 7-10 15s-4 15-10 15h-10l10-26zm70 5v-20l10 6 10 6-1-23-1-23-5 13-5 12-9-6-9-5v-32l1-32 13 18c7 9 16 17 19 17s8-8 10-17c3-10 5 10 6 45l1 62h-40v-21zm130 7c0-8 5-18 10-21l10-6v15c0 8 6 17 13 19l12 5-22 1-23 1v-14zm-313-16-5-20 10-6 10-6 16 17 17 18-12-7-13-7v15c0 23-17 20-23-4zm315-55v-35h38v10c0 6-4 10-9 10s-11 9-14 19l-5 20 17 4 16 5-21 1-22 1v-35zm-278-11c3-9 6-18 6-21s7 0 15 7l16 13-13 8c-7 5-17 9-22 9h-8l6-16zm-317-14c-3-14-7-27-7-30 0-11 166-13 187-2l12 7-77-2c-85-2-98 2-104 32l-4 20-7-25zm423-30-15-10h17c9 0 20 5 23 10l6 10h-8c-4 0-15-5-23-10zm45 0-6-10h15c9 0 16 5 16 10 0 6-4 10-9 10-6 0-13-4-16-10zm41 1-6-8h52l-13 8c-18 11-26 11-33 0zm72-8c6-2 18-2 25 0l12 5h-50l13-5zm-408-33c0-11 2-20 4-20s6 9 9 20l5 20h-9c-5 0-9-9-9-20zm215 10 6-10 10 5c14 9 11 15-7 15h-15l6-10zm-319-15-5-15h14c16 0 20 16 6 24l-9 6-6-15zm234 11c0-2 8-10 18-17l17-14-14 18c-13 16-21 21-21 13zm191-12 1-19 5 13c3 7 2 16-1 19-3 4-6-2-5-13zm-473-1c7-3 16-2 19 1 4 3-2 6-13 5l-19-1 13-5zm540 0c7-3 16-2 19 1 4 3-2 6-13 5l-19-1 13-5z"/></g><g fill="#2d68b0" transform="matrix(.1 0 0 -.1 0 100)"><path d="M0 500V0h1000v1000H0V500zm439 251c17-16 31-34 31-40v-11h-15c-8 0-24-9-35-20s-27-20-36-20h-16l5 19 5 20-13-5-13-5-7 10-6 11-37-1c-20-1-47-4-60-8l-23-6 29-28 29-28 349-2 349-2 1-70 2-70-11-7-11-6 13-16 13-15-4-23-3-23-105-1-105-1-12 10-13 9v-11c0-6-6-11-14-11h-14l-5 18c-2 9-8 24-12 34l-6 16 21 7 22 7-10 10-10 10-21-14-22-13 3-35 3-35h-60v65l-20 13-20 14-25-14-25-13h40l13-27c6-15 12-30 12-34v-8l-151 1H289l-10 27-11 26 11 18 11 17h-12l-13-1-35-61c-19-33-34-67-32-74l3-13-26-17-26-17-24 11-25 12v21c0 11-9 34-20 49-11 16-31 52-45 82l-25 53v99l48 46 48 46 61 17 60 17 74-2 73-2 4 12c6 20 28 14 61-17zm-34-20-5-10 10-6 10-6v15c0 18-6 21-15 7zm456-110-12-8 3-54 3-54 23-1 22-1v67h-21l6-19 6-19-11-7-10-6v93l15-12 15-12v15c0 18-22 28-39 18zm-744-8c-4-3-7-17-7-29v-24l25-6c14-3 32-4 40 0l15 5v19c0 10-5 23-12 30-13 13-50 16-61 5zm173-53v-61l10 6c6 3 10 15 10 26v19h31l-3 33-3 32-22 3-23 3v-61zm40 31c0-11-4-22-9-25l-9-6-5 12c-5 17 3 38 14 38 5 0 9-9 9-19zm30-33v-62l9 10c5 5 11 20 14 34l4 25 2-27c0-15 6-30 11-33l10-6v121h-20l-1-27v-28l-8 20c-5 11-7 23-4 28 2 4-1 7-6 7h-11v-62zm70 1v-60l9 6 9 5-1 55-1 55h-16v-61zm30 1v-60h40v22l-14-5-14-6 5 55 6 54h-23v-60zm50 51c0-6 5-13 10-16l10-6v15c0 9-4 16-10 16-5 0-10-4-10-9zm40-28-1-38-15 20-15 20 3-39 3-39 12-4 12-4 5 23c3 13 7 40 10 61l5 37h-19v-37zm170 11c6-14 10-38 10-54v-29l10-6 10-6 1 33c1 18 1 37 0 41s3 17 9 27l11 20h-11c-5 0-10-7-10-15s-4-15-10-15c-5 0-10 7-10 15s-4 15-10 15h-10l10-26zm70 5v-20l10 6 10 6-1-23-1-23-5 13-5 12-9-6-9-5v-32l1-32 13 18c7 9 16 17 19 17s8-8 10-17c3-10 5 10 6 45l1 62h-40v-21zm130 7c0-8 5-18 10-21l10-6v15c0 8 6 17 13 19l12 5-22 1-23 1v-14zm-313-16-5-20 10-6 10-6 16 17 17 18-12-7-13-7v15c0 23-17 20-23-4zm315-55v-35h38v10c0 6-4 10-9 10s-11 9-14 19l-5 20 17 4 16 5-21 1-22 1v-35zm-882 0c0-22 43-104 78-147l29-37 21 22c21 23 82 120 82 131 0 3-29 6-65 6h-66l-39 20-40 20v-15zm604-11c3-9 6-18 6-21s7 0 15 7l16 13-13 8c-7 5-17 9-22 9h-8l6-16zm-317-14c-3-14-7-27-7-30 0-11 166-13 187-2l12 7-77-2c-85-2-98 2-104 32l-4 20-7-25zm423-30-15-10h17c9 0 20 5 23 10l6 10h-8c-4 0-15-5-23-10zm45 0-6-10h15c9 0 16 5 16 10 0 6-4 10-9 10-6 0-13-4-16-10zm41 1-6-8h52l-13 8c-18 11-26 11-33 0zm72-8c6-2 18-2 25 0l12 5h-50l13-5z"/></g><g fill="#1d4274" transform="matrix(.1 0 0 -.1 0 100)"><path d="M0 500V0h1000v1000H0V500zm420 272c0-5 11-15 24-22 14-7 27-19 30-27l6-14-18-6c-9-3-29-17-44-31l-26-24-11 6c-6 4-11 14-11 22v14h-14c-8 0-16 5-18 11l-4 12-58-7-59-8 29-29 30-29h289c160 0 297 1 305 2h61l46-2V489l-9-5-9-6 11-13 12-14-4-23-3-23H707l-10 29-10 29 17 13 17 12-9 6-9 6-16-18-16-18 2-29 2-30h-60l-1 33v32l-21 15-22 15-5-8c-7-12 4-52 15-52 5 0 9-9 9-19v-20l-151 1H289l-10 25-10 26 6 21 6 21-18-22c-33-40-67-103-68-126v-21l-28-10-28-10-17 10-17 11-3 24c-2 13-16 41-31 64-15 22-35 56-44 77l-17 36v113l37 35c21 20 58 45 83 57l45 21 84 3c46 1 86 4 88 7 3 2 11 2 19-1l14-5v22h20c11 0 20-4 20-8zM123 613l-13-5v-18c0-9 7-23 14-30l15-12 23 4 23 3 3 18 4 18-12 14c-12 15-34 18-57 8zm205-108c-7-34-6-37 8-27l10 7-6 25-6 25-6-30zm-93-6c-4-6-5-12-2-15 2-3 7 2 10 11 7 17 1 20-8 4zm520-19-6-10h10c6 0 11 5 11 10 0 6-2 10-4 10-3 0-8-4-11-10zm-380-10 6-10 10 5c14 9 11 15-7 15h-15l6-10zm88 3c9-2 23-2 30 0l12 5h-60l18-5z"/></g></g></svg>
